<svg height="496pt" viewBox="-32 0 496 496" width="496pt" xmlns="http://www.w3.org/2000/svg"><path d="m256 189.496094v-149.496094h-80v149.496094c-64.503906 17.582031-112 76.425781-112 146.503906 0 83.945312 68.054688 152 152 152s152-68.054688 152-152c0-70.078125-47.496094-128.921875-112-146.503906zm0 0" fill="#b8cbd9"/><path d="m323.503906 228.855469c-18.457031-18.464844-41.558594-32.289063-67.503906-39.359375v-149.496094h-80v149.496094c-64.503906 17.582031-112 76.425781-112 146.503906 0 25.617188 6.398438 49.710938 17.59375 70.878906 7.367188.738282 14.839844 1.121094 22.40625 1.121094 108.351562 0 198.726562-76.929688 219.503906-179.144531zm0 0" fill="#e8eff4"/><path d="m216 488c83.945312 0 152-68.054688 152-152 0-2.800781-.199219-5.550781-.351562-8.320312-20.457032-20.28125-48.089844-31.679688-76.90625-31.679688h-5.484376c-28.976562 0-56.769531 11.511719-77.257812 32l-28.199219 28.199219c-12.679687 12.679687-29.871093 19.800781-47.800781 19.800781s-35.121094-7.121094-47.800781-19.800781l-20.199219-20.199219c0 83.945312 68.054688 152 152 152zm0 0" fill="#568e53"/><path d="m297.761719 296.34375c-2.335938-.152344-4.664063-.34375-7.019531-.34375h-5.484376c-28.976562 0-56.769531 11.511719-77.257812 32l-28.199219 28.199219c-12.679687 12.679687-29.871093 19.800781-47.800781 19.800781s-35.121094-7.121094-47.800781-19.800781l-20.199219-20.199219c0 25.617188 6.398438 49.710938 17.59375 70.878906 7.367188.738282 14.839844 1.121094 22.40625 1.121094 82.753906 0 154.976562-44.910156 193.761719-111.65625zm0 0" fill="#7ecb92"/><path d="m192 40v-32h48v32" fill="#976947"/><g fill="#8bd2f5"><path d="m336 144c0 13.253906-10.746094 24-24 24s-24-10.746094-24-24 10.746094-24 24-24 24 10.746094 24 24zm0 0"/><path d="m424 48c0 22.089844-17.910156 40-40 40s-40-17.910156-40-40 17.910156-40 40-40 40 17.910156 40 40zm0 0"/><path d="m144 144c0 13.253906-10.746094 24-24 24s-24-10.746094-24-24 10.746094-24 24-24 24 10.746094 24 24zm0 0"/><path d="m88 48c0 22.089844-17.910156 40-40 40s-40-17.910156-40-40 17.910156-40 40-40 40 17.910156 40 40zm0 0"/></g><path d="m216 496c-88.222656 0-160-71.777344-160-160 0-69.832031 45.753906-131.671875 112-152.496094v-143.503906c0-4.414062 3.585938-8 8-8h80c4.414062 0 8 3.585938 8 8v143.503906c66.246094 20.824219 112 82.664063 112 152.496094 0 88.222656-71.777344 160-160 160zm-32-448v141.496094c0 3.609375-2.414062 6.769531-5.894531 7.71875-62.472657 17.023437-106.105469 74.097656-106.105469 138.785156 0 79.398438 64.601562 144 144 144s144-64.601562 144-144c0-64.6875-43.632812-121.761719-106.105469-138.785156-3.480469-.949219-5.894531-4.109375-5.894531-7.71875v-141.496094zm0 0"/><path d="m248 40h-16v-24h-32v24h-16v-32c0-4.414062 3.585938-8 8-8h48c4.414062 0 8 3.585938 8 8zm0 0"/><path d="m132 384c-20.191406 0-39.175781-7.863281-53.457031-22.144531l-20.199219-20.199219 11.3125-11.3125 20.199219 20.199219c11.257812 11.257812 26.222656 17.457031 42.144531 17.457031s30.886719-6.199219 42.144531-17.457031l28.199219-28.199219c22.144531-22.152344 51.59375-34.34375 82.914062-34.34375h5.496094c31.316406 0 60.765625 12.191406 82.910156 34.34375l-11.3125 11.3125c-19.136718-19.128906-44.558593-29.65625-71.609374-29.65625h-5.496094c-27.046875 0-52.46875 10.527344-71.597656 29.65625l-28.199219 28.199219c-14.273438 14.28125-33.257813 22.144531-53.449219 22.144531zm0 0"/><path d="m312 176c-17.648438 0-32-14.351562-32-32s14.351562-32 32-32 32 14.351562 32 32-14.351562 32-32 32zm0-48c-8.824219 0-16 7.175781-16 16s7.175781 16 16 16 16-7.175781 16-16-7.175781-16-16-16zm0 0"/><path d="m384 96c-26.472656 0-48-21.527344-48-48s21.527344-48 48-48 48 21.527344 48 48-21.527344 48-48 48zm0-80c-17.648438 0-32 14.351562-32 32s14.351562 32 32 32 32-14.351562 32-32-14.351562-32-32-32zm0 0"/><path d="m120 176c-17.648438 0-32-14.351562-32-32s14.351562-32 32-32 32 14.351562 32 32-14.351562 32-32 32zm0-48c-8.824219 0-16 7.175781-16 16s7.175781 16 16 16 16-7.175781 16-16-7.175781-16-16-16zm0 0"/><path d="m48 96c-26.472656 0-48-21.527344-48-48s21.527344-48 48-48 48 21.527344 48 48-21.527344 48-48 48zm0-80c-17.648438 0-32 14.351562-32 32s14.351562 32 32 32 32-14.351562 32-32-14.351562-32-32-32zm0 0"/></svg>